<svg id="Capa_1" enable-background="new 0 0 512.004 512.004" height="512" viewBox="0 0 512.004 512.004" width="512" xmlns="http://www.w3.org/2000/svg"><g><path d="m256.002 146.264c-65.614 0-116.565 29.967-150.364 71.033-29.54 47.424-39.768 93.126-39.768 128.391 0 68.692 117.065 114.808 190.132 114.808 73.878 0 158.733-41.963 187.223-75.509 6.919-12.05 10.909-25.516 10.909-40.476 0-87.5-71.981-198.247-198.132-198.247z" fill="#b1abb4"/><path d="m72.87 345.688c0-35.265 8.331-85.439 32.768-128.391-31.183 37.889-47.768 85.225-47.768 127.214 0 87.5 136.391 123.985 198.132 123.985 51.186 0 153.674-25.078 187.223-83.509-46.644 37.56-144.541 68.509-187.223 68.509-57.067 0-183.132-39.116-183.132-107.808z" fill="#8c818f"/><path d="m320.614 404.907c-4.11-.493-7.843 2.451-8.331 6.564-1.179 9.937-12.104 16.087-21.55 16.087-24.578 0-27.231-20.552-27.231-29.389 0-4.142.731-15-7.5-15s-7.5 10.858-7.5 15c0 8.836-2.653 29.389-27.231 29.389-9.446 0-20.372-6.151-21.55-16.087-.488-4.114-4.222-7.054-8.331-6.564-4.113.488-7.052 4.218-6.564 8.331 2.177 18.354 20.24 29.321 36.446 29.321 11.115 0 21.279-3.555 28.62-10.011 2.01-1.768 4.142-4.063 6.111-6.974 1.969 2.911 4.101 5.206 6.111 6.974 7.341 6.456 17.505 10.011 28.62 10.011 16.206 0 34.269-10.967 36.446-29.321.487-4.113-2.452-7.843-6.566-8.331z" fill="#8c818f"/><path d="m278.502 375.56c0-6.031-15.489-7.389-22.5-7.389s-22.5 1.359-22.5 7.389c0 0 13.663 17.611 22.5 17.611 8.838 0 22.5-17.611 22.5-17.611z" fill="#f8d3d6"/><path d="m256.002 383.171c-8.837 0-22.5-7.611-22.5-7.611 0 6.031 13.663 22.611 22.5 22.611 8.838 0 22.5-16.58 22.5-22.611 0 0-13.662 7.611-22.5 7.611z" fill="#ebb3b8"/><path d="m135.788 195.049s7.254-.195 9.322-1.659c41.343-29.259 66.997-23.926 63.093-41.831-9.047-41.491-77.884-108.05-103.602-108.05-2.765 0-5.475.713-8.118 2.024-31.34 36.883-46.637 157.928-10.156 206.716 10.319-13.803 26.289-32.82 46.479-49.445 1.955-1.61 2.982-7.755 2.982-7.755z" fill="#f8d3d6"/><path d="m96.484 45.533c-35.503 17.62-58.332 147.476-23.345 225.958 0 0 4.669-7.844 13.189-19.241-27.404-66.764-15.357-167.056 10.156-206.717z" fill="#ebb3b8"/><path d="m132.816 202.816c1.956-1.611 3.938-3.208 5.972-4.767 2.146-1.645 4.254-3.195 6.323-4.659-.659-.452-1.208-.849-1.599-1.167-15.119-12.258-21.115-35.534-15.276-59.299.988-4.022-1.471-8.084-5.494-9.073-4.021-.991-8.085 1.47-9.073 5.494-7.061 28.742.456 57.358 19.147 73.471z" fill="#b1abb4"/><path d="m407.402 43.508c-16.485 0-50.687 27.348-75.503 57.912-6.261 13.338-16.604 30.692-19.099 42.138-4.099 18.801 29.218 17.411 74.242 51.921 27.944 21.418 59.936 53.512 59.936 53.512 24.472-85.054-3.038-205.483-39.576-205.483z" fill="#f8d3d6"/><path d="m388.216 186.049c-45.024-34.511-73.515-27.69-69.416-46.491 2.496-11.446 6.838-24.8 13.099-38.138-13.898 17.117-24.852 35.243-28.099 50.138-3.904 17.905 21.75 12.572 63.093 41.831 2.069 1.464 9.322 1.659 9.322 1.659s1.027 6.145 2.982 7.755c36.862 30.355 59.668 68.687 59.668 68.687 3.172-7.115 5.858-14.661 8.113-22.499-10.103-14.563-30.818-41.524-58.762-62.942z" fill="#ebb3b8"/><path d="m391.182 188.368c9.565-16.171 12.426-37.561 7.153-59.023-.988-4.022-5.049-6.484-9.073-5.494-4.022.988-6.482 5.05-5.494 9.073 4.189 17.048 2.285 33.844-4.706 46.503z" fill="#b1abb4"/><path d="m373.216 198.049c2.033 1.558 4.025 3.146 5.98 4.756 4.728-4.08 8.744-8.956 11.986-14.438-.98-.779-1.967-1.553-2.966-2.319-3.134-2.402-6.185-4.598-9.154-6.622-2.754 4.987-6.297 9.332-10.57 12.796-.392.318-.941.715-1.599 1.167 2.069 1.465 4.177 3.015 6.323 4.66z" fill="#8c818f"/><path d="m307.84 337.405c-2.447 0-4.846-1.196-6.285-3.397-2.266-3.467-1.293-8.115 2.174-10.381l55.163-36.06c3.464-2.265 8.115-1.293 10.381 2.174s1.293 8.115-2.174 10.381l-55.163 36.06c-1.265.827-2.688 1.223-4.096 1.223z" fill="#655e67"/><path d="m204.164 337.405c-1.408 0-2.831-.396-4.097-1.223l-55.163-36.06c-3.467-2.267-4.44-6.915-2.174-10.381 2.267-3.467 6.915-4.44 10.381-2.174l55.163 36.06c3.467 2.267 4.44 6.915 2.174 10.381-1.438 2.201-3.837 3.397-6.284 3.397z" fill="#655e67"/><path d="m138.788 378.23c-.834 0-1.682-.14-2.513-.436-41.3-14.688-84.96-14.688-126.26 0-3.902 1.388-8.191-.65-9.58-4.553-1.388-3.903.65-8.191 4.553-9.58 44.588-15.857 91.725-15.857 136.313 0 3.903 1.388 5.941 5.677 4.553 9.58-1.092 3.072-3.982 4.989-7.066 4.989zm-118.021 64.773c35.902-25.149 77.989-36.769 121.707-33.601 4.134.299 7.723-2.807 8.022-6.938s-2.807-7.723-6.938-8.022c-47.199-3.417-92.636 9.124-131.397 36.276-3.393 2.376-4.216 7.053-1.839 10.446 1.459 2.083 3.785 3.197 6.149 3.197 1.485 0 2.986-.441 4.296-1.358zm128.391-99.166c2.377-3.393 1.553-8.069-1.839-10.446-38.76-27.152-84.195-39.694-131.397-36.277-4.131.299-7.238 3.891-6.938 8.022.3 4.132 3.89 7.233 8.022 6.938 43.722-3.165 85.805 8.452 121.707 33.601 1.31.917 2.811 1.358 4.297 1.358 2.362.001 4.689-1.113 6.148-3.196zm362.411 29.404c1.388-3.903-.65-8.191-4.553-9.58-44.588-15.857-91.725-15.857-136.313 0-3.903 1.388-5.941 5.677-4.553 9.58s5.679 5.941 9.58 4.553c41.3-14.688 84.96-14.688 126.26 0 .831.295 1.679.436 2.513.436 3.083 0 5.973-1.917 7.066-4.989zm-9.886 67.922c2.377-3.393 1.553-8.069-1.839-10.446-38.76-27.152-84.198-39.696-131.397-36.276-4.131.299-7.238 3.891-6.938 8.022s3.899 7.234 8.022 6.938c43.716-3.17 85.805 8.451 121.707 33.601 1.31.917 2.811 1.358 4.297 1.358 2.363.001 4.689-1.114 6.148-3.197zm-128.391-95.487c35.902-25.149 77.988-36.769 121.707-33.601 4.133.298 7.723-2.807 8.022-6.938s-2.807-7.723-6.938-8.022c-47.2-3.417-92.636 9.125-131.397 36.277-3.393 2.376-4.216 7.053-1.839 10.446 1.459 2.083 3.785 3.197 6.149 3.197 1.486-.001 2.987-.441 4.296-1.359z" fill="#f5fcff"/><g fill="#8c818f"><path d="m280.107 301.345c-4.142 0-7.5-3.358-7.5-7.5v-9.1c0-4.142 3.358-7.5 7.5-7.5s7.5 3.358 7.5 7.5v9.1c0 4.142-3.358 7.5-7.5 7.5z"/><path d="m231.897 301.345c-4.142 0-7.5-3.358-7.5-7.5v-9.1c0-4.142 3.358-7.5 7.5-7.5s7.5 3.358 7.5 7.5v9.1c0 4.142-3.358 7.5-7.5 7.5z"/></g></g></svg>