<svg id="Capa_1" enable-background="new 0 0 497 497" height="512" viewBox="0 0 497 497" width="512" xmlns="http://www.w3.org/2000/svg"><g><path d="m248.5 228.804c-37.082 0-191.697 66.211-235.591 119.37 11.373 55.569 160.82 110.826 235.591 110.826 77.437 0 224.218-55.257 235.591-110.826-38.642-50.204-198.509-119.37-235.591-119.37z" fill="#f5fcff"/><path d="m248.5 452c-74.771 0-220.591-59.182-220.591-104.826 0-2.16.07-4.393.203-6.687-5.987 0-12.305 1.711-15.203 7.687 0 58.014 158.154 118.826 235.591 118.826s235.591-57.994 235.591-118.826c-28.887 51.442-158.154 103.826-235.591 103.826z" fill="#d8e2f3"/><path d="m219.635 465.964c1.252 15.518 13.045 23.036 33.865 23.036 19.658 0 27.844-7.518 35.88-14.794 1.322-2.592 2.585-5.348 3.89-8.242z" fill="#f5fcff"/><path d="m219.635 465.964h-15.905c8.212 18.209 14.757 31.036 44.77 31.036 25.244 0 33.885-9.076 40.88-22.794-6.088 4.934-16.222 7.794-35.88 7.794-20.82 0-28.42-6.176-33.865-16.036z" fill="#d8e2f3"/><path d="m196.669 362.169-18.716 59.644c-2.859 20.018 10.805 38.187 34.381 38.187h72.331c18.445 0 34.294-12.892 35.518-25.091.426-4.246.089-8.666-1.137-13.096l-18.716-59.644z" fill="#f5fcff"/><path d="m305.344 124.63s-33.08-7.176-56.844-7.176-56.844 7.176-56.844 7.176-88.434 46.519-123.445 94.278c-27.651 43.886-46.915 87.573-40.1 121.579 68.364-30.001 151.266-6.883 187.545 68.318h65.687c39.016-80.875 131.96-101.524 202.747-60.63 0-29.66-20.291-81.508-55.303-129.266-35.01-47.76-123.443-94.279-123.443-94.279z" fill="#ebb044"/><path d="m68.212 218.908c-35.011 47.759-55.303 99.606-55.303 129.266 4.966-2.869 10.045-5.424 15.203-7.687 1.927-33.346 17.618-80.277 40.1-121.579z" fill="#e38523"/><path d="m212.334 452c-21.195 0-30.562-15.885-27.226-27.941l-14.312-4.491c-6.286 22.722 17.962 47.432 41.538 47.432" fill="#d8e2f3"/><path d="m170.797 419.567 18.716-59.644c1.24-3.952 5.45-6.152 9.401-4.91 3.952 1.24 6.15 5.449 4.91 9.401l-18.716 59.644-7.156 7.754z" fill="#c38778"/><path d="m326.203 419.567-18.716-59.644c-1.24-3.952-5.45-6.152-9.401-4.91-3.952 1.24-6.15 5.449-4.91 9.401l18.716 59.644 7.156 7.754z" fill="#c38778"/><path d="m284.666 467c23.577 0 47.825-24.71 41.538-47.433l-14.312 4.491c3.335 12.057-6.032 27.942-27.226 27.942h-21.871c-3.752 0-6.794-3.042-6.794-6.794v-16.891c0-4.107-3.164-7.688-7.269-7.811-4.249-.128-7.732 3.277-7.732 7.496v17.206c0 3.752-3.042 6.794-6.794 6.794h-21.871c-21.195 0-30.562-15.885-27.226-27.941l-14.312-4.491c-6.287 22.722 17.961 47.432 41.537 47.432z" fill="#d8e2f3"/><path d="m248.5 429c9.338 0 28.647-9.679 32.844-20.196 0-12.468-9.08-14.986-32.844-14.986-14.764 0-23.857.974-28.629 4.7 0 15.659 20.44 30.482 28.629 30.482z" fill="#8c818f"/><path d="m215.656 408.804c0 12.468 21.823 28.196 32.844 28.196s32.844-15.728 32.844-28.196c-4.382 5.78-23.506 13.196-32.844 13.196-8.189 0-24.692-12.096-28.629-23.481-2.909 2.271-4.215 5.564-4.215 10.285z" fill="#655e67"/><path d="m103.897 0c-16.705 6.775-46.855 105.65-29.563 200.092 41.448-41.898 117.323-75.462 117.323-75.462-.001-51.354-61.723-124.63-87.76-124.63z" fill="#f5fcff"/><path d="m103.897 0c-28.946 0-58.162 133.694-35.685 218.908 20.832-20.697 39.749-35.127 56.168-45.773 3.493-9.179 9.258-5.823 13.562-8.322 33.605-19.513 53.715-23.478 53.715-40.183 0 0-56.965 16.284-105.093 53.121-2.958 2.264-7.29.436-7.712-3.266-8.806-77.22 15.776-165.386 25.045-174.485z" fill="#d8e2f3"/><path d="m121.618 88.235c-.863-4.051-4.847-6.637-8.898-5.771-4.051.863-6.635 4.848-5.771 8.898l13.654 64.051h8.67l5.092-7.382z" fill="#d8e2f3"/><path d="m120.602 155.414 3.778 17.722c4.734-3.069 9.258-5.821 13.563-8.321l-3.578-16.783c-4.491 2.284-9.097 4.742-13.763 7.382z" fill="#bacdea"/><path d="m393.103 0c-26.037 0-87.759 73.276-87.759 124.63 0 0 120.153 75.462 127.843 73.165 13.44-84.48-13.435-197.795-40.084-197.795z" fill="#f5fcff"/><path d="m375.382 88.235c.863-4.051 4.847-6.637 8.898-5.771 4.051.863 6.635 4.848 5.771 8.898l-13.654 64.051h-8.67l-5.092-7.382z" fill="#d8e2f3"/><path d="m417.035 182.981c-49.349-40.53-111.692-58.351-111.692-58.351 0 16.705 20.11 20.67 53.715 40.183 4.304 2.499 11.995.885 13.562 8.322 16.419 10.646 35.335 25.076 56.168 45.773 1.784-6.762 3.239-13.832 4.398-21.113-5.077-5.156-10.466-10.145-16.151-14.814z" fill="#d8e2f3"/><path d="m376.398 155.414-3.778 17.722c-4.734-3.069-9.258-5.821-13.563-8.321l3.578-16.783c4.491 2.284 9.097 4.742 13.763 7.382z" fill="#bacdea"/><g fill="#655e67"><path d="m196.669 339.159c-1.951 0-3.899-.756-5.369-2.262l-35.183-36.06c-2.893-2.965-2.834-7.713.13-10.606 2.965-2.893 7.713-2.834 10.606.13l35.183 36.06c2.893 2.965 2.834 7.713-.13 10.606-1.458 1.423-3.348 2.132-5.237 2.132z"/><path d="m300.331 339.159c1.951 0 3.899-.756 5.369-2.262l35.183-36.06c2.893-2.965 2.834-7.713-.13-10.606-2.965-2.893-7.713-2.834-10.606.13l-35.183 36.06c-2.893 2.965-2.834 7.713.13 10.606 1.458 1.423 3.348 2.132 5.237 2.132z"/></g></g></svg>