<svg id="Capa_1" enable-background="new 0 0 481 481" height="512" viewBox="0 0 481 481" width="512" xmlns="http://www.w3.org/2000/svg"><g><path d="m421.281 62.549c29.49 19.096-3.823 80.131-3.823 80.131l-176.958 230-176.958-230s-33.313-61.035-3.823-80.131l180.781 47.737z" fill="#8c5e5e"/><path d="m240.5 326.666c71.33-261.878 151.199-216.315 176.958-183.986" fill="#ffcdbe"/><path d="m462.648 268.956h-429.296l-7 108.67c-14.449 27.52-18.352 41.881-18.352 60.467 0 11.995 7.537 19.426 20.463 19.426 12.74 0 25.16-8.852 34.303-20.31 21.478 26.917 49.615 26.917 71.093 0 21.478 26.917 49.615 26.917 71.093 0 21.478 26.917 49.615 26.917 71.093 0 21.478 26.917 49.615 26.917 71.093 0 21.478 26.917 49.615 26.917 71.093 0 9.143 11.459 22.345 20.31 35.547 20.31 21.645 0 27.22-19.426 27.22-19.426 0-18.586-3.903-32.947-18.352-60.467v-108.67z" fill="#c38778"/><path d="m453.78 450.519c-10.517 0-21.035-7.577-29.5-18.474-3.037-3.91-8.962-4.013-11.949-.064-18.525 24.488-40.739 24.497-59.267.027-2.955-3.903-8.892-3.903-11.847 0-18.521 24.461-40.725 24.461-59.246 0-2.955-3.903-8.892-3.903-11.847 0-18.521 24.461-40.725 24.461-59.246 0-2.955-3.903-8.892-3.903-11.847 0-18.521 24.461-40.725 24.461-59.246 0-2.955-3.903-8.892-3.903-11.847 0-18.523 24.463-40.728 24.461-59.251-.006-2.996-3.958-8.945-3.821-11.946.133-8.235 10.848-18.155 18.384-28.276 18.384-7.593 0-13.463-5.765-13.463-12.426 0-17.912 3.625-31.901 16.823-57.527 1.004-1.95 1.529-4.119 1.529-6.312v-105.298h-15v108.67c-14.451 27.52-18.354 41.881-18.354 60.467 0 17.328 14.018 27.426 27.22 27.426s26.403-6.77 35.547-20.31c18.286 27.08 52.807 27.08 71.093 0 18.286 27.08 52.807 27.08 71.093 0 18.286 27.08 52.807 27.08 71.093 0 18.286 27.08 52.807 27.08 71.093 0 18.286 27.08 52.807 27.08 71.093 0 9.143 13.54 22.345 20.31 35.547 20.31s27.22-10.098 27.22-27.426c.001 0-5.574 12.426-27.219 12.426z" fill="#8c5e5e"/><path d="m388.972 120.963c12.225 4.726 22.046 13.635 28.486 21.718 24.906 31.258 45.19 77.967 45.19 126.276-6.067 67.961-66.67 140.028-222.148 140.028s-214.148-66.16-214.148-140.029c0-48.309 27.632-106.484 52.462-126.924 74.379-61.229 247.935-45.124 310.158-21.069z" fill="#ffcdbe"/><path d="m246.571 305.177c-34.433-236.913-119.94-199.171-156.475-183.424-11.329 4.883-20.457 13.276-26.554 20.928-24.906 31.258-45.19 77.967-45.19 126.276 0 81.868 66.67 148.028 222.148 148.028s222.148-66.16 222.148-148.028c-9.171 56.996-66.67 133.028-222.148 133.028s-207.148-69.827-207.148-133.029c0-48.309 24.928-99.592 52.112-124.924 24.179-22.532 82.597-17.23 137.036 182.634.568 2.085 1.153 4.297 1.738 6.561 1.94 7.498 12.583 7.498 14.523 0 .586-2.263 1.17-4.475 1.738-6.561" fill="#ebae9d"/><path d="m128.001 164.983c-10.958 10.946-18.303 25.999-18.303 42.222 0 32.875 26.65 59.525 59.525 59.525 9.327 0 21.547-3.448 31.388-10.005 0-50.02-24.473-87.913-54.466-101.232-6.625 2.115-12.751 5.347-18.144 9.49z" fill="#ffd064"/><path d="m316.777 152.681h-88.541s36.635 91.536 40.527 94.675c13.641 11.003 30.763 19.375 53.014 19.375 13.633 0 30.512-6.592 42.222-18.303 7.709-10.035 12.303-22.589 12.303-36.222 0-32.875-26.65-59.525-59.525-59.525z" fill="#ffd064"/><path d="m327.777 260.73c-22.251 0-39.373-8.372-53.014-19.375-3.892-3.139-15.166-15.81-15.166-15.81l-31.362-72.865h-64.013c-6.306 0-12.376.994-18.078 2.813 16.997 17.958 35.665 49.461 54.466 101.232-7.646 2.519-16.061 4.005-25.388 4.005-32.875 0-59.525-26.65-59.525-59.525 0-13.633 4.593-26.187 12.303-36.222-14.164 10.881-23.303 27.98-23.303 47.222 0 32.875 26.65 59.525 59.525 59.525 22.25 0 39.373-8.372 53.013-19.374h46.527c13.641 11.003 30.763 19.375 53.014 19.375 19.242 0 36.341-9.138 47.222-23.303-10.034 7.709-22.588 12.302-36.221 12.302z" fill="#ebb044"/><path d="m161.506 232.162c-4.142 0-7.5-3.358-7.5-7.5v-26.398c0-4.142 3.358-7.5 7.5-7.5s7.5 3.358 7.5 7.5v26.398c0 4.142-3.358 7.5-7.5 7.5z" fill="#8c5e5e"/><path d="m319.494 232.162c-4.143 0-7.5-3.358-7.5-7.5v-26.398c0-4.142 3.357-7.5 7.5-7.5s7.5 3.358 7.5 7.5v26.398c0 4.142-3.357 7.5-7.5 7.5z" fill="#8c5e5e"/><g fill="#c38778"><path d="m54.44 286.457c-2.532 0-5.002-1.281-6.414-3.602-2.153-3.539-1.031-8.153 2.507-10.306l28.062-17.079c3.54-2.154 8.154-1.03 10.306 2.507 2.153 3.539 1.031 8.153-2.507 10.306l-28.062 17.079c-1.218.742-2.564 1.095-3.892 1.095z"/><path d="m88.327 325.017c-1.644 0-3.3-.539-4.683-1.646-3.233-2.589-3.755-7.309-1.167-10.542l20.545-25.657c2.588-3.232 7.308-3.755 10.542-1.167 3.233 2.589 3.755 7.309 1.167 10.542l-20.545 25.657c-1.481 1.85-3.66 2.813-5.859 2.813z"/><path d="m136.666 350.74c-.742 0-1.495-.111-2.24-.343-3.954-1.236-6.157-5.443-4.921-9.396l9.796-31.34c1.235-3.955 5.446-6.154 9.396-4.921 3.954 1.236 6.157 5.443 4.921 9.396l-9.796 31.34c-1.003 3.208-3.963 5.264-7.156 5.264z"/><path d="m426.561 286.457c-1.329 0-2.675-.353-3.893-1.094l-28.063-17.079c-3.538-2.153-4.661-6.768-2.507-10.306s6.769-4.66 10.306-2.507l28.063 17.079c3.538 2.153 4.661 6.768 2.507 10.306-1.412 2.32-3.882 3.601-6.413 3.601z"/><path d="m392.673 325.017c-2.199 0-4.378-.962-5.859-2.813l-20.546-25.657c-2.589-3.233-2.066-7.953 1.166-10.542 3.233-2.589 7.953-2.067 10.543 1.167l20.546 25.657c2.589 3.233 2.066 7.953-1.166 10.542-1.384 1.107-3.04 1.646-4.684 1.646z"/><path d="m344.334 350.74c-3.193 0-6.153-2.056-7.156-5.265l-9.795-31.34c-1.236-3.954.968-8.16 4.921-9.396 3.956-1.232 8.16.968 9.396 4.921l9.795 31.34c1.236 3.954-.968 8.16-4.921 9.396-.746.233-1.499.344-2.24.344z"/><path d="m417.458 18.463c-24.471-17.756-83.551 49.587-83.551 49.587-28.296-11.459-55.364-17.11-93.407-17.11s-65.111 5.651-93.408 17.11c0 0-59.079-67.343-83.551-49.587-21.775 15.8 7.083 70.942 7.083 70.942 4.552 8.698 11.283 19.769 19.472 32.351 31.38-13.525 79.645-.114 127.139 130.603v-.002c9.158-7.387 37.37-7.387 46.527 0v.004c47.495-130.719 95.759-144.13 127.14-130.604 8.189-12.581 14.92-23.652 19.472-32.351.001-.001 28.859-55.144 7.084-70.943z"/></g><path d="m240.5 228.376c-6.518 8.021-14.106 16.593-23.264 23.98v.002c5.752 15.832 11.494 33.384 17.192 52.818 1.779 6.067 10.364 6.067 12.143 0 5.698-19.433 11.439-36.985 17.192-52.817v-.004c-9.157-7.386-16.745-15.958-23.263-23.979z" fill="#8c5e5e"/></g></svg>