<svg id="Capa_1" enable-background="new 0 0 497 497" height="512" viewBox="0 0 497 497" width="512" xmlns="http://www.w3.org/2000/svg"><g><path d="m419.069 136.334s28.662-21.053 44.272-44.719c4.327-9.294 7.131-19.673 7.131-30.984 0-33.485-27.145-60.63-60.63-60.63-14.095 0-26.326 5.083-36.682 12.52-16.607 15.339-31.015 44.811-33.927 55.647 16.898 9.638 52.975 36.463 79.836 68.166z" fill="#f5fcff"/><path d="m78.973 132.551c27.144-30.565 70.379-61.802 87.451-61.802 0 0-26.661-70.749-79.266-70.749-12.652 0-24.396 3.88-34.115 10.508-11.805 10.538-19.082 28.122-19.082 47.301 0 31.406 32.524 64.952 45.012 74.742z" fill="#f5fcff"/><path d="m419.069 126.334c-26.861-31.703-55.221-51.57-72.119-61.209 2.912-10.836 10.753-35.101 26.21-52.605-28.294 20.318-42.584 58.229-42.584 58.229h-164.152c-17.072 0-60.307 21.237-87.451 51.802-12.488-9.79-37.446-33.516-37.446-64.921 0-19.18 3.872-35.383 11.515-47.122-16.003 10.915-26.514 29.289-26.514 50.122 0 49.874 54.403 81.704 54.403 81.704h335.138s32.52-19.033 47.272-50.719c-19.314 21.624-44.272 34.719-44.272 34.719z" fill="#d8e2f3"/><path d="m91.234 58.168c-2.671-3.166-7.403-3.565-10.569-.894-3.165 2.672-3.565 7.404-.894 10.569l25.924 30.713 12.49-8.457z" fill="#bacdea"/><path d="m417.229 67.843c2.672-3.165 2.271-7.897-.894-10.569-3.167-2.671-7.897-2.271-10.569.894l-25.442 30.143 11.382 9.77z" fill="#bacdea"/><path d="m127.801 120.614c1.708 0 3.426-.581 4.834-1.769 3.165-2.672 3.565-7.404.894-10.569l-15.343-18.177c-4.169 2.602-8.358 5.428-12.49 8.457l16.37 19.395c1.483 1.758 3.602 2.663 5.735 2.663z" fill="#8aaadc"/><path d="m364.365 118.846c1.408 1.188 3.126 1.769 4.834 1.769 2.133 0 4.252-.905 5.735-2.663l16.771-19.87c-3.871-3.5-7.677-6.752-11.382-9.77l-16.852 19.965c-2.671 3.165-2.271 7.897.894 10.569z" fill="#8aaadc"/><path d="m416.069 142.334c34.947 41.247 67.023 98.881 67.023 169.417 0 66.676-68.682 137.441-95.808 137.441-16.459 0-60.506-16.275-60.506-16.275s-19.368 56.863-78.278 56.863-78.349-55.867-78.349-55.867-48.4 16.627-61.369 16.627-88.123-43.563-88.123-139.002c0-90.451 60.272-169.204 60.272-169.204z" fill="#f5fcff"/><path d="m80.931 142.334c-15.792 26.46-52.023 87.399-52.023 169.417 0 92.703 69.778 130.441 80.808 130.441 5.376 0 28.399-6.542 45.253-11.556 10.575-3.146 21.86 1.475 27.33 11.057 11.803 20.677 28.78 40.307 66.201 40.307s54.398-19.63 66.201-40.308c5.469-9.582 16.754-14.203 27.33-11.057 16.854 5.014 39.877 11.556 45.253 11.556 13.696 0 86.961-46.378 95.808-130.441 0 103.977-80.243 145.441-94.874 145.441-9.311 0-57.642-15.194-57.642-15.194-14.084 25.273-31.249 55.003-82.076 55.003s-67.992-29.73-82.076-55.003c0 0-48.331 15.194-57.642 15.194-14.632 0-94.874-41.464-94.874-145.441 0-70.535 32.076-128.17 67.023-169.416z" fill="#d8e2f3"/><path d="m302.396 434.21c-19.496 0-36.925-8.411-46.396-14.029v-39.875c0-4.142-3.357-7.5-7.5-7.5s-7.5 3.358-7.5 7.5v39.875c-9.47 5.618-26.899 14.029-46.396 14.029-31.376 0-52.341-24.794-51.187-64.619l-.007-.001c-1.747 9.499-2.702 18.46-2.702 26.394 0 30.33 22.519 53.227 53.896 53.227 29.264 0 53.896-18.96 53.896-18.96s24.632 18.96 53.896 18.96c27.692 0 48.474-17.84 52.975-42.88-10.736 19.215-29.341 27.879-52.975 27.879z" fill="#d8e2f3"/><path d="m291.315 355.438c-27.393 0-58.238 0-85.631 0 13.834 17.674 33.786 34.867 42.815 34.867 9.03.001 28.983-17.193 42.816-34.867z" fill="#e27f86"/><path d="m416.069 142.334-6.444 54.098c17.285 24.982 29.548 56.257 29.548 85.076 0 57.95-38.65 88.084-85.592 88.084 0 0-29.545-14.153-62.267-14.153-27.393 0-42.815 4.867-42.815 4.867s-15.422-4.867-42.815-4.867c-32.722 0-62.267 14.153-62.267 14.153-46.942 0-85.592-30.133-85.592-88.084 0-28.819 12.263-60.094 29.548-85.076l-6.444-54.098c36.331-42.88 75.766-68.048 85.493-71.585 17.518-6.37 46.493-10.098 74.576-10.667 2.51-.051 5.013 4.924 7.5 4.924s4.99-4.974 7.5-4.924c28.083.569 57.058 4.297 74.576 10.667 9.729 3.537 49.164 28.705 85.495 71.585z" fill="#ebb044"/><path d="m183.728 265.248c-1.919 0-3.839-.732-5.304-2.197l-27.011-27.01c-2.929-2.929-2.929-7.678 0-10.606 2.93-2.929 7.678-2.929 10.607 0l27.011 27.01c2.929 2.929 2.929 7.678 0 10.606-1.465 1.465-3.385 2.197-5.303 2.197z" fill="#444145"/><path d="m313.272 265.248c-1.92 0-3.839-.732-5.304-2.197-2.929-2.929-2.929-7.678 0-10.606l27.011-27.01c2.931-2.929 7.679-2.929 10.607 0 2.929 2.929 2.929 7.678 0 10.606l-27.011 27.01c-1.464 1.465-3.384 2.197-5.303 2.197z" fill="#444145"/><path d="m136.05 375.736c-.45 0-.906-.041-1.365-.125-4.074-.749-6.769-4.659-6.02-8.733 5.157-28.047 22.448-59.928 38.385-83.796 2.301-3.445 6.959-4.373 10.403-2.073 3.445 2.3 4.373 6.957 2.073 10.402-14.832 22.212-31.31 52.087-36.108 78.179-.665 3.616-3.819 6.146-7.368 6.146z" fill="#e38523"/><path d="m360.95 375.736c.45 0 .906-.041 1.365-.125 4.074-.749 6.769-4.659 6.02-8.733-5.157-28.047-22.448-59.928-38.384-83.796-2.301-3.445-6.959-4.373-10.403-2.073-3.445 2.3-4.373 6.957-2.073 10.402 14.832 22.212 31.31 52.087 36.108 78.179.664 3.616 3.818 6.146 7.367 6.146z" fill="#e38523"/><path d="m127.224 223.46c-12.601 20.126-16.921 39.84-11.558 52.734 3.011 7.238 8.797 11.874 17.197 13.778 4.039.917 6.571 4.934 5.655 8.973-.79 3.481-3.883 5.843-7.308 5.843-.55 0-1.107-.061-1.666-.187-13.036-2.957-22.883-10.999-27.729-22.646-7.335-17.633-2.708-41.855 12.692-66.456 2.198-3.511 6.826-4.575 10.337-2.377s4.577 6.827 2.38 10.338zm236.913 66.513c-4.039.917-6.571 4.934-5.655 8.973.79 3.481 3.882 5.843 7.308 5.843.549 0 1.107-.061 1.666-.187 13.036-2.957 22.883-10.999 27.729-22.646 7.335-17.633 2.708-41.855-12.692-66.456-2.198-3.511-6.828-4.575-10.337-2.377-3.511 2.198-4.575 6.826-2.378 10.337 12.601 20.126 16.921 39.84 11.558 52.734-3.013 7.239-8.799 11.874-17.199 13.779zm-275.949 51.875c-14.957-14.232-22.862-35.097-22.862-60.34 0-25.439 10.284-54.893 28.216-80.808 2.356-3.406 1.506-8.079-1.9-10.435-3.409-2.357-8.078-1.506-10.436 1.9-19.624 28.364-30.88 60.928-30.88 89.343 0 29.452 9.518 54.075 27.522 71.207 16.256 15.468 39.07 24.079 64.34 24.351.684-4.783 1.772-9.749 2.887-14.826-.48-.096-1.15-.148-1.658-.148-21.895-.001-41.509-7.19-55.229-20.244zm358.486-60.341c0-28.416-11.256-60.979-30.88-89.343-2.356-3.406-7.029-4.257-10.436-1.9-3.406 2.356-4.257 7.029-1.9 10.435 17.932 25.916 28.216 55.369 28.216 80.808 0 25.243-7.905 46.108-22.862 60.34-13.72 13.054-33.334 20.244-55.229 20.244-.509 0-1.169.052-1.649.148 1.115 5.077 2.193 10.043 2.878 14.826 25.271-.272 48.084-8.883 64.34-24.351 18.004-17.132 27.522-41.755 27.522-71.207zm-60.191-129.126c-32.303-37.996-76.174-58.08-130.483-59.76v-32.536c-2.51-.051-5.013-.079-7.5-.079s-4.99.028-7.5.079v32.536c-54.309 1.68-98.179 21.764-130.483 59.76-2.684 3.156-2.3 7.889.855 10.572 3.157 2.684 7.891 2.299 10.572-.856 29.336-34.504 69.365-52.806 119.056-54.467v25.037c-39.549 1.716-72.143 17.111-94.601 44.784-2.61 3.216-2.119 7.939 1.097 10.55 3.219 2.61 7.94 2.117 10.55-1.098 19.829-24.433 47.713-37.609 82.954-39.228v25.09c-25.255 1.782-45.384 12.729-59.905 32.61-2.443 3.345-1.712 8.037 1.633 10.48 3.344 2.444 8.038 1.713 10.48-1.632 13.132-17.979 31.218-26.718 55.292-26.718s42.16 8.739 55.292 26.718c1.469 2.011 3.75 3.077 6.063 3.077 1.535 0 3.084-.47 4.418-1.444 3.345-2.443 4.076-7.135 1.633-10.48-14.521-19.881-34.65-30.829-59.905-32.61v-25.09c35.241 1.618 63.125 14.794 82.954 39.228 2.609 3.216 7.331 3.708 10.55 1.098 3.216-2.61 3.707-7.333 1.097-10.55-22.458-27.673-55.052-43.068-94.601-44.784v-25.038c49.692 1.661 89.721 19.963 119.056 54.467 2.683 3.155 7.415 3.54 10.572.856 3.154-2.682 3.538-7.416.854-10.572z" fill="#664646"/></g></svg>